<svg width="64" height="64" viewBox="0 0 64 64" fill="none" xmlns="http://www.w3.org/2000/svg">
<circle cx="32" cy="32" r="32" fill="#0A0E00"/>
<path d="M31.9949 48.5229C40.8032 48.5229 47.944 41.2673 47.944 32.3169C47.944 23.3666 40.8032 16.1108 31.9949 16.1108C23.1866 16.1108 16.046 23.3666 16.046 32.3169C16.046 41.2673 23.1866 48.5229 31.9949 48.5229Z" stroke="white" stroke-width="0.586288" stroke-miterlimit="10"/>
<path d="M40.9018 41.3679C50.7614 31.3495 54.766 19.1757 49.8465 14.177C44.9273 9.17846 32.9465 13.2478 23.0872 23.2662C13.2277 33.2845 9.22298 45.4583 14.1423 50.4571C19.0617 55.4557 31.0424 51.3862 40.9018 41.3679Z" stroke="white" stroke-width="0.586288" stroke-miterlimit="9.9997"/>
<path d="M49.8465 50.4565C54.766 45.4578 50.7614 33.284 40.9018 23.2656C31.0424 13.2473 19.0617 9.17794 14.1423 14.1766C9.22298 19.1752 13.2277 31.349 23.0872 41.3673C32.9465 51.3856 44.9273 55.455 49.8465 50.4565Z" stroke="white" stroke-width="0.586288" stroke-miterlimit="9.9997"/>
<path d="M16.0461 33.331C16.597 33.331 17.0437 32.8773 17.0437 32.3173C17.0437 31.7574 16.597 31.3037 16.0461 31.3037C15.4951 31.3037 15.0484 31.7574 15.0484 32.3173C15.0484 32.8773 15.4951 33.331 16.0461 33.331Z" fill="white"/>
<path d="M31.9946 17.1246C32.5456 17.1246 32.9922 16.6707 32.9922 16.1109C32.9922 15.5511 32.5456 15.0972 31.9946 15.0972C31.4437 15.0972 30.9971 15.5511 30.9971 16.1109C30.9971 16.6707 31.4437 17.1246 31.9946 17.1246Z" fill="white"/>
<path d="M31.9946 49.5369C32.5456 49.5369 32.9922 49.083 32.9922 48.523C32.9922 47.9633 32.5456 47.5093 31.9946 47.5093C31.4437 47.5093 30.9971 47.9633 30.9971 48.523C30.9971 49.083 31.4437 49.5369 31.9946 49.5369Z" fill="white"/>
<path d="M47.9442 33.331C48.4952 33.331 48.9417 32.8773 48.9417 32.3173C48.9417 31.7574 48.4952 31.3037 47.9442 31.3037C47.393 31.3037 46.9464 31.7574 46.9464 32.3173C46.9464 32.8773 47.393 33.331 47.9442 33.331Z" fill="white"/>
<path fill-rule="evenodd" clip-rule="evenodd" d="M31.9948 35.3176C28.9487 35.331 26.448 32.79 26.4612 29.6813C26.4746 26.5995 28.9487 24.072 32.0213 24.0855C35.0541 24.0991 37.5417 26.6266 37.515 29.7488C37.5018 32.8306 35.0409 35.331 31.9948 35.3176Z" fill="#0090FF"/>
<path fill-rule="evenodd" clip-rule="evenodd" d="M32.6873 29.2483C33.1662 29.316 33.6449 29.3835 34.1371 29.4511C34.1771 29.3024 34.2171 29.1808 34.2569 29.0321C33.7515 28.951 33.2725 28.8834 32.7671 28.8024C32.9399 28.1806 33.0865 27.5859 33.2725 27.0047C33.339 26.8154 33.4721 26.6262 33.6183 26.4775C33.8047 26.2883 34.0573 26.3288 34.2171 26.5451C34.2836 26.6397 34.3498 26.7343 34.4164 26.8019C34.5229 26.8965 34.6693 26.9505 34.7623 26.856C34.8288 26.7884 34.8288 26.6397 34.8288 26.5316C34.8288 26.4911 34.7758 26.437 34.749 26.3964C34.5763 26.1937 34.3367 26.1261 34.0973 26.1125C33.5386 26.0855 33.1394 26.3829 32.8336 26.8154C32.5277 27.2479 32.3947 27.7481 32.2349 28.2481C32.1951 28.3968 32.1551 28.5455 32.1154 28.7077C31.57 28.6267 31.0512 28.5455 30.5191 28.478C30.5058 28.6267 30.4793 28.7618 30.4657 28.9104C30.998 28.9915 31.5034 29.0726 32.0221 29.1538C31.9556 29.4511 31.8893 29.7349 31.8228 30.0188C31.317 29.9512 30.8249 29.8837 30.3328 29.8025C30.3062 29.9647 30.293 30.0863 30.2797 30.2214C30.7719 30.3027 31.2373 30.3701 31.7162 30.4514C31.7162 30.5054 31.7162 30.5324 31.7162 30.5731C31.57 31.2352 31.4237 31.8976 31.2505 32.5464C31.1708 32.8572 31.0377 33.1547 30.7852 33.3708C30.5723 33.5466 30.3462 33.5196 30.1865 33.3031C30.12 33.2086 30.0535 33.087 29.9604 33.0059C29.8939 32.9518 29.7343 32.9249 29.6943 32.9653C29.6145 33.033 29.5614 33.1682 29.5746 33.2627C29.5746 33.3573 29.6678 33.4518 29.7342 33.5196C29.987 33.7223 30.293 33.7493 30.6121 33.6952C31.131 33.587 31.4901 33.2627 31.7162 32.8033C31.8893 32.4381 32.0221 32.0463 32.1551 31.6543C32.2749 31.3029 32.3414 30.938 32.4477 30.5731C32.9534 30.6541 33.4588 30.7215 33.9642 30.8028C34.0043 30.6541 34.044 30.5189 34.084 30.3837C33.5519 30.3027 33.0464 30.2214 32.5277 30.154C32.5675 29.816 32.6208 29.5457 32.6873 29.2483Z" fill="white"/>
<path d="M26.7669 39.1967C26.7669 38.129 27.4453 37.1152 28.6025 37.1152C29.4007 37.1152 29.9327 37.6018 29.9327 38.4533C29.9327 39.5211 29.2543 40.5347 28.0971 40.5347C27.299 40.5347 26.7669 40.0482 26.7669 39.1967ZM29.3474 38.494C29.3474 38.0209 29.1214 37.5747 28.5493 37.5747C27.7379 37.5747 27.3655 38.4804 27.3655 39.1428C27.3655 39.6159 27.5916 40.0618 28.1636 40.0618C28.975 40.0618 29.3474 39.1697 29.3474 38.494Z" fill="white"/>
<path d="M31.5157 38.5481C31.1166 38.5481 30.917 38.7372 30.7975 39.2509L30.5446 40.4808H30.0126L30.5314 38.0209H31.0633L30.9836 38.4129C31.1699 38.1561 31.4224 38.0073 31.7285 38.0073C31.7683 38.0073 31.8084 38.0073 31.8483 38.0209L31.7418 38.5616C31.6488 38.5481 31.5823 38.5481 31.5157 38.5481Z" fill="white"/>
<path d="M33.3782 37.9667C34.0167 37.9667 34.2825 38.4533 34.2825 39.0076C34.2825 39.7781 33.8436 40.535 33.0721 40.535C32.7395 40.535 32.4869 40.3727 32.3671 40.0753L32.2874 40.4809H31.7551L32.4469 37.1694H32.9791L32.7395 38.2777C32.8861 38.0748 33.1254 37.9667 33.3782 37.9667ZM33.7374 39.0482C33.7374 38.6562 33.5775 38.4129 33.2317 38.4129C32.7663 38.4129 32.5134 38.9534 32.5134 39.44C32.5134 39.832 32.6865 40.1024 33.0324 40.1024C33.511 40.1024 33.7374 39.4806 33.7374 39.0482Z" fill="white"/>
<path d="M34.9882 40.4809H34.4563L34.9749 38.0209H35.5072L34.9882 40.4809ZM35.5737 37.7234H35.0414L35.148 37.1694H35.68L35.5737 37.7234Z" fill="white"/>
<path d="M36.876 37.3721L36.7429 38.0209H37.2219L37.1421 38.4129H36.6499L36.3706 39.751C36.3573 39.8051 36.3573 39.8591 36.3573 39.8997C36.3573 40.0214 36.4239 40.062 36.5966 40.062H36.7963L36.7164 40.4808H36.3306C35.945 40.4808 35.7986 40.3998 35.7986 40.143C35.7986 40.0619 35.8119 39.9537 35.8384 39.832L36.1313 38.4129H35.7719L35.852 38.0209H36.211L36.3441 37.3721H36.876Z" fill="white"/>
</svg>
