<svg width="38" height="54" viewBox="0 0 38 54" fill="none" xmlns="http://www.w3.org/2000/svg">
<path fill-rule="evenodd" clip-rule="evenodd" d="M22.663 22.0907L33.1266 23.5498C33.4159 22.5022 33.6737 21.5981 33.9629 20.5754L23.1283 18.9791C24.3482 14.6142 25.4675 10.3802 26.7818 6.26469C27.3174 4.87942 28.1473 3.62467 29.2153 2.58568C29.4943 2.2728 29.8449 2.0308 30.2377 1.87999C30.6305 1.72918 31.0541 1.67395 31.4728 1.71893C31.8922 1.76131 32.2954 1.90241 32.6487 2.13048C33.0021 2.35501 33.2955 2.66093 33.5039 3.02218C33.95 3.68217 34.4461 4.30754 34.9879 4.89286C35.2829 5.25865 35.7078 5.49863 36.1755 5.56357C36.6433 5.6285 37.1183 5.51346 37.5032 5.24205C37.9749 4.79309 37.9623 3.75798 38 2.97229C38 2.66051 37.6479 2.28637 37.3712 1.99953C36.776 1.37087 36.057 0.869974 35.2588 0.527831C34.4606 0.185689 33.6001 0.00957199 32.7305 0.0103737C28.7123 -0.164224 25.8134 1.88106 23.5811 4.94274C21.3487 8.00443 20.3552 11.5525 19.2862 15.0819C18.9718 16.1232 18.7014 17.1583 18.3995 18.2932L6.89206 16.6408C6.76001 17.6759 6.62167 18.6424 6.48961 19.6775L17.7267 21.3923C17.2299 23.5062 16.7583 25.4829 16.2678 27.497L5.52751 26.0129C5.38288 27.1478 5.27598 28.002 5.13764 29.006L15.5824 30.5711C15.6076 30.8449 15.6076 31.1204 15.5824 31.3942C14.4883 36.0335 13.4696 40.7476 12.2245 45.3246C11.743 47.608 10.5483 49.6829 8.80998 51.2546C8.51842 51.5581 8.15856 51.7889 7.75984 51.9281C7.15863 52.1418 6.50088 52.1397 5.9011 51.9221C5.30132 51.7044 4.7975 51.2851 4.47737 50.7371C4.04443 49.9737 3.49982 49.2782 2.86129 48.6731C2.36452 48.3114 1.25779 48.0994 0.893074 48.3863C0.607261 48.6574 0.380557 48.9837 0.226973 49.3452C0.0733888 49.7066 -0.00380959 50.0955 0.000144569 50.4877C0.163041 51.2144 0.599331 51.8522 1.22007 52.271C2.11268 52.9214 3.13997 53.3667 4.22754 53.5749C5.31511 53.783 6.43575 53.7487 7.50831 53.4745C9.25942 53.1346 10.9025 52.3822 12.2989 51.2807C13.6953 50.1792 14.8042 48.7609 15.5321 47.1454C16.7736 44.521 17.8243 41.812 18.6762 39.0391C19.5063 36.5448 20.0659 33.982 20.7576 31.3693L31.7055 32.9469C32.0073 31.9118 32.2777 30.9577 32.567 29.9413L21.3424 28.3013C21.8141 26.1064 22.2228 24.1921 22.663 22.0907Z" fill="#FFFCE1"/>
</svg>
