<svg width="32" height="32" viewBox="0 0 32 32" fill="none" xmlns="http://www.w3.org/2000/svg">
<path fill-rule="evenodd" clip-rule="evenodd" d="M18.3955 3.95308L24.7464 7.61975C26.1812 8.44818 26.6729 10.2829 25.8444 11.7178L22.4653 17.5707C22.1691 18.0836 22.0314 18.6728 22.0696 19.2638L22.2948 22.7565C22.3719 23.9521 21.0855 24.7511 20.0479 24.1521L14.1031 20.7199C14.103 20.7199 14.103 20.72 14.103 20.72L9.10299 29.3803C8.82685 29.8586 8.21526 30.0224 7.73697 29.7463C7.25867 29.4701 7.0948 28.8586 7.37094 28.3803L12.3709 19.72C12.371 19.72 12.371 19.7199 12.371 19.7199L6.42727 16.2882C5.38973 15.6892 5.43849 14.1756 6.51242 13.6446L9.64986 12.0933C10.1808 11.8308 10.6221 11.417 10.9183 10.9041L14.2974 5.05116C15.1258 3.61628 16.9606 3.12466 18.3955 3.95308Z" fill="#FFFCE1"/>
</svg>
