<svg width="232" height="64" viewBox="0 0 232 64" fill="none" xmlns="http://www.w3.org/2000/svg">
<path d="M37.9038 0C36.3378 0.0246192 34.7934 0.369535 33.3657 1.01362C31.9381 1.6577 30.6575 2.58732 29.6027 3.74508C26.6626 7.04031 24.5165 10.9653 23.3291 15.2188L22.9235 16.5546C20.4035 16.555 17.9162 17.1259 15.6481 18.2244C13.035 19.5422 10.8505 21.5759 9.34937 24.0881C7.84821 26.6004 7.09226 29.4877 7.16978 32.4133C7.24729 35.3388 8.15508 38.1822 9.78717 40.6114C11.4193 43.0407 13.7084 44.9558 16.3876 46.1335C15.9105 48.328 15.2903 50.4987 14.6701 52.7886L14.4793 53.4327C13.9591 55.1767 13.2804 56.8694 12.4517 58.4898C12.0866 59.242 11.5592 59.9039 10.9075 60.4277C10.2558 60.9516 9.49593 61.3243 8.68277 61.5191C8.29013 61.6522 7.87314 61.6978 7.46104 61.6525C7.04893 61.6071 6.65171 61.472 6.29739 61.2567C6.10201 61.109 5.93959 60.9222 5.82035 60.7082C5.69525 60.4959 5.61411 60.2605 5.5818 60.0163C5.54901 59.3109 5.32236 58.6282 4.92678 58.0432C4.5312 57.4583 3.98199 56.9938 3.33953 56.7007C2.94246 56.573 2.52169 56.5366 2.10862 56.5944C1.69554 56.6523 1.30087 56.8027 0.954141 57.0346C0.659896 57.2823 0.423713 57.5918 0.262358 57.941C0.102965 58.2858 0.0138039 58.6588 0 59.0383C0 62.9265 4.77077 63.9761 7.29928 64C8.86529 63.9754 10.4097 63.6303 11.8373 62.9862C13.265 62.3422 14.5457 61.4127 15.6005 60.2549C18.8648 56.6004 21.1467 52.1761 22.2318 47.3976C25.1794 47.481 28.0898 46.7246 30.6239 45.2168C33.1579 43.709 35.2112 41.512 36.5442 38.8818C38.2039 35.252 38.5085 31.1478 37.4029 27.3127C36.7398 25.1849 35.6189 23.2281 34.1189 21.5797C32.6189 19.9313 30.7761 18.6314 28.7201 17.7712L29.4118 15.0995C29.7696 13.7399 30.1513 12.3563 30.5091 11.0444L30.6999 10.4003C31.2202 8.65628 31.8989 6.96357 32.7275 5.34325C33.0926 4.59099 33.62 3.92912 34.2718 3.40526C34.9235 2.88141 35.6833 2.50857 36.4964 2.31376C36.8917 2.19044 37.3086 2.15231 37.7197 2.20165C38.1309 2.25099 38.5269 2.3868 38.8818 2.60014C39.0772 2.74793 39.2397 2.93473 39.3589 3.14873C39.484 3.36098 39.5651 3.59619 39.5975 3.84044C39.6377 4.54702 39.87 5.22922 40.2693 5.81351C40.6686 6.3978 41.2198 6.86206 41.8635 7.15616C42.2601 7.28745 42.6816 7.3256 43.0952 7.26769C43.5089 7.20977 43.9037 7.05731 44.2489 6.82217C44.538 6.56947 44.7732 6.2612 44.9407 5.91572C45.1147 5.5762 45.2046 5.20001 45.2031 4.81853C45.2031 1.09733 40.4084 0.143123 37.9038 0ZM21.9694 20.5382L17.1986 42.3645C14.9402 41.1934 13.1307 39.3105 12.0503 37.0073C10.9698 34.7041 10.6787 32.1089 11.222 29.6236C11.7652 27.1382 13.1125 24.9012 15.0554 23.2588C16.9982 21.6164 19.4283 20.6602 21.9694 20.5382ZM34.1349 34.3734C33.6949 36.9381 32.371 39.2678 30.3929 40.9584C28.4147 42.649 25.9071 43.5937 23.3052 43.6287H23.1621L27.9329 21.6355C30.1925 22.8169 32.014 24.6913 33.1302 26.9838C34.2464 29.2763 34.5985 31.8661 34.1349 34.3734Z" fill="#FFFCE1"/>
<path d="M57.2031 28.8745V6.49951H73.3044V10.1252H61.3775V16.1364H72.0402V19.7384H61.3775V28.8745H57.2031Z" fill="#FFFCE1"/>
<path fill-rule="evenodd" clip-rule="evenodd" d="M77.5255 9.07545V5.30664H81.5091V9.07545H77.5255ZM77.5255 28.8743V11.7233H81.5091V28.8743H77.5255Z" fill="#FFFCE1"/>
<path d="M86.6384 28.8743V5.30664H90.622V28.8743H86.6384Z" fill="#FFFCE1"/>
<path fill-rule="evenodd" clip-rule="evenodd" d="M103.003 29.28C101.42 29.3297 99.8482 28.994 98.4233 28.3019C97.2087 27.6553 96.2437 26.6232 95.6801 25.3679C94.4711 22.0967 94.4711 18.5012 95.6801 15.23C96.2437 13.9748 97.2087 12.9427 98.4233 12.296C99.8502 11.6122 101.422 11.2847 103.003 11.3418C104.451 11.2939 105.887 11.614 107.178 12.2722C108.316 12.9072 109.206 13.9072 109.706 15.1108C110.312 16.701 110.595 18.3955 110.541 20.0962V21.2889H98.8526C98.8721 22.2008 99.0413 23.1034 99.3535 23.9605C99.5891 24.6434 100.052 25.2245 100.666 25.6064C101.398 25.9952 102.223 26.1767 103.051 26.1313C103.527 26.1432 104.002 26.0788 104.458 25.9404C104.878 25.8248 105.268 25.6216 105.603 25.344C105.936 25.0683 106.198 24.7165 106.367 24.3183C106.562 23.8668 106.66 23.3791 106.653 22.8872H110.493C110.514 23.864 110.318 24.8333 109.921 25.7258C109.554 26.5038 109.006 27.1826 108.323 27.7056C107.607 28.2406 106.798 28.6372 105.937 28.8745C104.982 29.1431 103.995 29.2795 103.003 29.28ZM98.9242 18.4741H106.39C106.408 17.8531 106.327 17.2334 106.152 16.6375C106.019 16.1835 105.783 15.7669 105.46 15.4209C105.181 15.0919 104.819 14.8446 104.411 14.7053C103.957 14.555 103.481 14.4824 103.003 14.4906C102.264 14.4653 101.529 14.6123 100.856 14.9199C100.288 15.2024 99.8269 15.6631 99.5444 16.2318C99.1959 16.9326 98.9853 17.6939 98.9242 18.4741Z" fill="#FFFCE1"/>
<path d="M121.921 29.2796C120.375 29.3302 118.842 28.994 117.46 28.3015C116.265 27.6511 115.324 26.6177 114.788 25.3675C114.158 23.7579 113.858 22.0383 113.906 20.3105C113.846 18.5719 114.155 16.8403 114.812 15.2296C115.348 13.9794 116.289 12.946 117.484 12.2956C118.861 11.6143 120.385 11.2863 121.921 11.3414C122.953 11.3294 123.981 11.466 124.974 11.7469C125.854 11.9965 126.668 12.4364 127.359 13.0351C128.005 13.6277 128.503 14.3627 128.814 15.1818C129.144 16.1325 129.306 17.1336 129.291 18.1398H125.26C125.283 17.462 125.161 16.787 124.902 16.1599C124.663 15.6626 124.281 15.2475 123.805 14.9672C123.219 14.6808 122.572 14.5416 121.921 14.5618C121.142 14.5337 120.375 14.7505 119.726 15.1818C119.13 15.6485 118.696 16.2912 118.486 17.0186C118.172 18.0133 118.027 19.0533 118.056 20.0957V20.4536C118.03 21.4959 118.175 22.5353 118.486 23.5307C118.696 24.2707 119.15 24.918 119.774 25.3675C120.485 25.8144 121.321 26.0232 122.159 25.9638C122.797 25.9961 123.431 25.856 123.996 25.5584C124.495 25.29 124.89 24.8616 125.117 24.3418C125.398 23.7288 125.537 23.06 125.522 22.3858H129.363C129.374 23.3606 129.212 24.3296 128.886 25.2483C128.581 26.0646 128.091 26.7993 127.455 27.395C126.772 28.0169 125.956 28.4739 125.069 28.7308C124.058 29.0894 122.994 29.275 121.921 29.2796Z" fill="#FFFCE1"/>
<path fill-rule="evenodd" clip-rule="evenodd" d="M141.075 29.2796C139.429 29.3394 137.793 29.004 136.304 28.3015C135.052 27.6749 134.05 26.64 133.465 25.3675C132.192 22.1081 132.192 18.489 133.465 15.2296C134.05 13.9571 135.052 12.9222 136.304 12.2956C137.795 11.6665 139.397 11.3423 141.015 11.3423C142.634 11.3423 144.235 11.6665 145.726 12.2956C146.966 12.9311 147.958 13.9642 148.541 15.2296C149.814 18.489 149.814 22.1081 148.541 25.3675C147.958 26.633 146.966 27.666 145.726 28.3015C144.273 28.9847 142.68 29.3196 141.075 29.2796ZM141.075 26.0116C141.956 26.0444 142.83 25.8384 143.603 25.4153C144.269 24.9827 144.766 24.3341 145.011 23.5785C145.332 22.5932 145.485 21.5612 145.464 20.5252V20.072C145.485 19.0361 145.332 18.0039 145.011 17.0186C144.765 16.2699 144.268 15.6293 143.603 15.2057C142.823 14.7981 141.955 14.5854 141.075 14.5854C140.194 14.5854 139.327 14.7981 138.546 15.2057C137.882 15.6293 137.385 16.2699 137.139 17.0186C136.827 18.0055 136.682 19.0375 136.71 20.072V20.4536C136.682 21.4881 136.827 22.5201 137.139 23.507C137.383 24.2626 137.88 24.9111 138.546 25.3436C139.313 25.7917 140.187 26.0227 141.075 26.0116Z" fill="#FFFCE1"/>
<path fill-rule="evenodd" clip-rule="evenodd" d="M153.788 9.07545V5.30664H157.772V9.07545H153.788ZM153.788 28.8743V11.7233H157.772V28.8743H153.788Z" fill="#FFFCE1"/>
<path d="M162.826 28.8741V11.7231H166.142L166.476 14.1085H166.714C167.101 13.5786 167.568 13.1118 168.098 12.7249C168.648 12.3139 169.26 11.9919 169.911 11.7707C171.612 11.2542 173.44 11.3385 175.087 12.0093C175.928 12.4169 176.615 13.0865 177.043 13.9176C177.588 14.9945 177.843 16.1948 177.782 17.4002V28.9694H173.751V18.0682C173.766 17.5508 173.693 17.0347 173.536 16.5415C173.413 16.1695 173.2 15.8337 172.916 15.5636C172.636 15.3142 172.301 15.1343 171.938 15.0387C171.511 14.9202 171.069 14.8639 170.626 14.8717C169.938 14.8612 169.261 15.043 168.67 15.3966C168.092 15.7367 167.621 16.2326 167.311 16.8277C166.967 17.4816 166.794 18.2121 166.81 18.9508V28.9217L162.826 28.8741Z" fill="#FFFCE1"/>
<path d="M57.2031 58.2148V35.8638H73.3044V39.5372H61.3775V45.5484H72.0402V49.0788H61.3775V58.191L57.2031 58.2148Z" fill="#FFFCE1"/>
<path fill-rule="evenodd" clip-rule="evenodd" d="M84.2537 58.6203C82.6109 58.6777 80.9774 58.3509 79.483 57.6661C78.23 57.0289 77.2295 55.9864 76.6443 54.7082C75.3711 51.4489 75.3711 47.8297 76.6443 44.5703C77.2292 43.2978 78.2305 42.2629 79.483 41.6364C80.9734 40.9394 82.6099 40.612 84.2537 40.6821C85.8972 40.6167 87.5326 40.9438 89.0245 41.6364C90.2647 42.2718 91.2558 43.3049 91.8393 44.5703C93.1125 47.8297 93.1125 51.4489 91.8393 54.7082C91.2571 55.9805 90.2663 57.0216 89.0245 57.6661C87.529 58.3476 85.8963 58.6742 84.2537 58.6203ZM84.2537 55.3523C85.1355 55.3913 86.0108 55.1848 86.7822 54.756C87.4538 54.3295 87.9525 53.6786 88.1896 52.9192C88.5016 51.9406 88.6467 50.9166 88.619 49.8899V49.4127C88.6467 48.386 88.5016 47.3619 88.1896 46.3833C87.9525 45.6238 87.4538 44.973 86.7822 44.5465C85.9972 44.1539 85.1315 43.9495 84.2537 43.9495C83.376 43.9495 82.5103 44.1539 81.7252 44.5465C81.0536 44.973 80.555 45.6238 80.3179 46.3833C80.0059 47.3619 79.8608 48.386 79.8885 49.4127V49.8899C79.8608 50.9166 80.0059 51.9406 80.3179 52.9192C80.555 53.6786 81.0536 54.3295 81.7252 54.756C82.4967 55.1848 83.372 55.3913 84.2537 55.3523Z" fill="#FFFCE1"/>
<path d="M102.357 58.6194C101.57 58.7006 100.775 58.5987 100.034 58.3217C99.2936 58.0447 98.6269 57.6 98.0864 57.0226C97.5459 56.4451 97.1463 55.7505 96.9188 54.993C96.6913 54.2355 96.6421 53.4356 96.775 52.6559V41.063H100.759V51.9404C100.746 52.4498 100.818 52.9578 100.973 53.4432C101.088 53.8193 101.302 54.1573 101.593 54.4211C101.871 54.6791 102.207 54.8671 102.572 54.9697C103.002 55.0682 103.442 55.1164 103.884 55.113C104.568 55.12 105.243 54.9472 105.839 54.612C106.413 54.2558 106.883 53.7537 107.199 53.1569C107.538 52.5098 107.71 51.7883 107.7 51.0578V41.063H111.684V58.2139H108.392L108.058 55.8285H107.843C107.444 56.3475 106.979 56.8125 106.46 57.212C105.905 57.6246 105.284 57.9393 104.623 58.1423C103.9 58.4271 103.134 58.5884 102.357 58.6194Z" fill="#FFFCE1"/>
<path d="M116.745 58.215V41.0641H120.037L120.371 43.4495H120.586C120.985 42.9305 121.45 42.4654 121.969 42.0659C122.528 41.6547 123.148 41.3327 123.806 41.1117C124.54 40.8874 125.304 40.7749 126.072 40.7778C127.064 40.7572 128.049 40.9525 128.958 41.3503C129.812 41.7492 130.508 42.4205 130.938 43.2586C131.466 44.3408 131.712 45.5387 131.654 46.7413V58.3104H127.646V47.4569C127.661 46.9474 127.589 46.4391 127.432 45.9541C127.308 45.5821 127.095 45.2463 126.811 44.9762C126.527 44.7148 126.183 44.5265 125.81 44.4274C125.391 44.3071 124.957 44.2508 124.521 44.2604C123.833 44.2433 123.153 44.4256 122.565 44.7853C121.997 45.1383 121.529 45.631 121.206 46.2165C120.843 46.864 120.662 47.5975 120.681 48.3395V58.3104L116.745 58.215Z" fill="#FFFCE1"/>
<path fill-rule="evenodd" clip-rule="evenodd" d="M142.603 58.6205C141.328 58.6551 140.07 58.324 138.977 57.6663C137.894 56.9628 137.059 55.9364 136.592 54.7323C135.985 53.1009 135.702 51.3671 135.757 49.6275C135.696 47.8932 135.988 46.1646 136.616 44.5466C137.049 43.3821 137.837 42.3829 138.868 41.6897C139.9 40.9964 141.122 40.6441 142.364 40.6823C143.088 40.6784 143.81 40.7667 144.511 40.9448C145.742 41.2542 146.814 42.011 147.517 43.0677H147.708V34.7666H151.691V58.3581H148.423L148.089 55.9727H147.875C147.343 56.8398 146.573 57.5354 145.656 57.9764C144.703 58.4266 143.657 58.6472 142.603 58.6205ZM143.843 55.1855C144.639 55.2307 145.427 55.0127 146.086 54.5653C146.676 54.1134 147.11 53.4877 147.326 52.7763C147.625 51.8525 147.762 50.8841 147.731 49.9138V49.4844C147.744 48.6839 147.672 47.8843 147.517 47.099C147.386 46.4948 147.143 45.9205 146.801 45.4055C146.499 44.966 146.088 44.6126 145.609 44.3798C145.055 44.1281 144.451 44.0057 143.843 44.0219C143.008 43.965 142.176 44.1648 141.458 44.5944C140.839 44.9964 140.395 45.6189 140.218 46.3357C139.936 47.3199 139.807 48.3417 139.836 49.3652V49.8184C139.804 50.8184 139.933 51.817 140.218 52.7763C140.395 53.493 140.839 54.1156 141.458 54.5177C142.179 54.9904 143.03 55.224 143.891 55.1855H143.843Z" fill="#FFFCE1"/>
<path fill-rule="evenodd" clip-rule="evenodd" d="M161.182 58.6194C160.629 58.6069 160.078 58.543 159.536 58.4286C158.906 58.3094 158.301 58.0836 157.747 57.7607C157.147 57.4146 156.652 56.9116 156.316 56.3057C155.94 55.5675 155.752 54.7484 155.767 53.9203C155.727 52.8852 156.002 51.8622 156.554 50.9862C157.108 50.1937 157.866 49.567 158.749 49.1732C159.832 48.6872 160.982 48.3657 162.16 48.2192C163.59 48.0201 165.033 47.9244 166.478 47.9329V46.5494C166.49 46.0925 166.409 45.6378 166.239 45.2136C166.093 44.8137 165.804 44.4821 165.428 44.2832C164.864 44.0124 164.24 43.8894 163.615 43.9255C162.964 43.8926 162.314 43.9982 161.707 44.2355C161.328 44.3674 161.001 44.6185 160.776 44.9512C160.597 45.21 160.505 45.5192 160.514 45.8338V46.287H156.65C156.638 46.176 156.638 46.064 156.65 45.953V45.5714C156.627 44.6422 156.941 43.736 157.532 43.0191C158.166 42.2674 158.99 41.6991 159.918 41.3731C161.084 40.9732 162.311 40.7795 163.543 40.8007C164.862 40.7558 166.175 40.9746 167.408 41.4446C168.376 41.8042 169.209 42.4541 169.793 43.3053C170.311 44.1942 170.567 45.2111 170.533 46.2393V54.3258C170.514 54.491 170.538 54.6583 170.6 54.8123C170.662 54.9664 170.762 55.1025 170.891 55.2083C171.114 55.3854 171.393 55.4782 171.678 55.4707H172.727V58.214C172.415 58.3349 172.097 58.4384 171.773 58.5241C171.274 58.6492 170.761 58.7054 170.246 58.6911C169.725 58.7075 169.206 58.6182 168.72 58.4286C168.287 58.2507 167.903 57.9728 167.599 57.6176C167.285 57.2604 167.056 56.8361 166.931 56.3772H166.74C166.369 56.8553 165.926 57.2737 165.428 57.6176C164.875 57.9806 164.272 58.2617 163.639 58.4524C162.832 58.6211 162.005 58.6773 161.182 58.6194ZM162.399 55.3515C162.991 55.3614 163.581 55.2644 164.14 55.0652C164.623 54.8925 165.063 54.6155 165.428 54.2541C165.772 53.8803 166.039 53.4428 166.215 52.9661C166.389 52.443 166.478 51.8953 166.478 51.344V50.5568C165.368 50.547 164.259 50.6267 163.162 50.7953C162.314 50.8924 161.499 51.1778 160.776 51.6303C160.488 51.8238 160.254 52.0872 160.096 52.3959C159.937 52.7047 159.859 53.0486 159.87 53.3954C159.862 53.7581 159.962 54.115 160.156 54.4211C160.36 54.7295 160.65 54.9704 160.991 55.113C161.44 55.2856 161.918 55.3666 162.399 55.3515Z" fill="#FFFCE1"/>
<path d="M180.289 58.6201C179.408 58.6727 178.532 58.4474 177.785 57.976C177.196 57.5831 176.746 57.0159 176.497 56.354C176.242 55.7002 176.112 55.0043 176.115 54.3026V44.3078H174.063V41.0398H176.21L176.926 36.269H180.098V41.0398H183.056V44.3078H180.098V53.8493C180.085 54.0393 180.11 54.2299 180.172 54.4102C180.233 54.5904 180.33 54.7566 180.456 54.8989C180.598 55.0351 180.767 55.1396 180.952 55.2054C181.137 55.2712 181.334 55.2967 181.53 55.2805H183.056V58.0238L182.269 58.2622L181.267 58.4531C180.946 58.5313 180.619 58.5872 180.289 58.6201Z" fill="#FFFCE1"/>
<path fill-rule="evenodd" clip-rule="evenodd" d="M186.825 38.44V34.7666H190.809V38.5594L186.825 38.44ZM186.825 58.215V41.0641H190.809V58.215H186.825Z" fill="#FFFCE1"/>
<path fill-rule="evenodd" clip-rule="evenodd" d="M203.523 58.6203C201.881 58.6751 200.248 58.3484 198.752 57.6661C197.499 57.0289 196.499 55.9864 195.914 54.7083C194.641 51.4489 194.641 47.8297 195.914 44.5704C196.499 43.2979 197.5 42.2629 198.752 41.6364C200.26 40.9907 201.883 40.6577 203.523 40.6577C205.163 40.6577 206.786 40.9907 208.294 41.6364C209.534 42.2718 210.525 43.3049 211.109 44.5704C212.382 47.8297 212.382 51.4489 211.109 54.7083C210.527 55.9805 209.536 57.0216 208.294 57.6661C206.8 58.3526 205.166 58.6795 203.523 58.6203ZM203.523 55.3524C204.405 55.3913 205.28 55.1849 206.052 54.756C206.723 54.3295 207.222 53.6787 207.459 52.9192C207.78 51.9422 207.933 50.918 207.912 49.8899V49.4128C207.933 48.3846 207.78 47.3603 207.459 46.3833C207.222 45.6239 206.723 44.973 206.052 44.5465C205.267 44.1539 204.401 43.9496 203.523 43.9496C202.646 43.9496 201.78 44.1539 200.995 44.5465C200.33 44.9804 199.833 45.6285 199.587 46.3833C199.275 47.3619 199.13 48.386 199.158 49.4128V49.8899C199.13 50.9166 199.275 51.9406 199.587 52.9192C199.833 53.674 200.33 54.3221 200.995 54.756C201.766 55.1849 202.641 55.3913 203.523 55.3524Z" fill="#FFFCE1"/>
<path d="M216.214 58.2143V41.0634H219.529L219.863 43.4487H220.078C220.481 42.9248 220.955 42.4591 221.485 42.0652C222.036 41.6541 222.648 41.3321 223.298 41.111C224.033 40.8867 224.797 40.7742 225.564 40.7771C226.564 40.7626 227.555 40.9576 228.475 41.3496C229.316 41.7571 230.003 42.4268 230.431 43.2579C230.958 44.3401 231.205 45.538 231.146 46.7406V58.3097H227.139V47.4562C227.154 46.9467 227.081 46.4384 226.924 45.9534C226.81 45.5772 226.595 45.2392 226.304 44.9754C226.019 44.7141 225.676 44.5257 225.302 44.4267C224.884 44.3064 224.449 44.2501 224.014 44.2597C223.326 44.2466 222.647 44.4286 222.058 44.7846C221.49 45.1376 221.022 45.6303 220.698 46.2157C220.354 46.8696 220.182 47.6001 220.197 48.3388V58.3097L216.214 58.2143Z" fill="#FFFCE1"/>
</svg>
