<svg width="32" height="32" viewBox="0 0 32 32" fill="none" xmlns="http://www.w3.org/2000/svg">
<path fill-rule="evenodd" clip-rule="evenodd" d="M25.3334 2.66675H6.66669C4.45755 2.66675 2.66669 4.45761 2.66669 6.66675V20.0001C2.66669 22.2092 4.45755 24.0001 6.66669 24.0001H14.1144L9.72388 28.3906C9.20318 28.9113 9.20318 29.7555 9.72388 30.2762C10.2446 30.7969 11.0888 30.7969 11.6095 30.2762L16 25.8857L20.3905 30.2762C20.9112 30.7969 21.7555 30.7969 22.2762 30.2762C22.7969 29.7555 22.7969 28.9113 22.2762 28.3906L17.8856 24.0001H25.3334C27.5425 24.0001 29.3334 22.2092 29.3334 20.0001V6.66675C29.3334 4.45761 27.5425 2.66675 25.3334 2.66675ZM7.05721 19.1652C6.53651 18.6445 6.53651 17.8003 7.05721 17.2796L12.3905 11.9463C12.8746 11.4622 13.6465 11.4234 14.1767 11.8564L15.8752 13.2435L20.3571 8.4254C20.6087 8.1549 20.9613 8.00092 21.3308 8.00021C21.7002 7.99949 22.0534 8.15209 22.3061 8.42162L24.9727 11.2661C25.4764 11.8033 25.4492 12.6471 24.9119 13.1507C24.3747 13.6543 23.5309 13.6271 23.0273 13.0899L21.3371 11.2871L16.9763 15.975C16.4974 16.4898 15.7012 16.5443 15.1566 16.0996L13.4237 14.6844L8.94283 19.1652C8.42213 19.6859 7.57791 19.6859 7.05721 19.1652Z" fill="#FFFCE1"/>
</svg>
