<svg width="64" height="64" viewBox="0 0 64 64" fill="none" xmlns="http://www.w3.org/2000/svg">
<circle cx="32" cy="32" r="32" fill="#0A0E00"/>
<path d="M31.9948 48.523C40.8032 48.523 47.9439 41.2674 47.9439 32.317C47.9439 23.3667 40.8032 16.111 31.9948 16.111C23.1865 16.111 16.0459 23.3667 16.0459 32.317C16.0459 41.2674 23.1865 48.523 31.9948 48.523Z" stroke="white" stroke-width="0.586288" stroke-miterlimit="10"/>
<path d="M40.9017 41.3678C50.7613 31.3494 54.7659 19.1757 49.8464 14.177C44.9272 9.1784 32.9464 13.2477 23.0871 23.2661C13.2276 33.2844 9.22288 45.4583 14.1422 50.457C19.0616 55.4556 31.0422 51.3861 40.9017 41.3678Z" stroke="white" stroke-width="0.586288" stroke-miterlimit="9.9997"/>
<path d="M49.8464 50.4566C54.7659 45.4579 50.7613 33.2841 40.9017 23.2658C31.0422 13.2474 19.0616 9.17807 14.1422 14.1767C9.22288 19.1754 13.2276 31.3491 23.0871 41.3674C32.9464 51.3857 44.9272 55.4552 49.8464 50.4566Z" stroke="white" stroke-width="0.586288" stroke-miterlimit="9.9997"/>
<path d="M16.0459 33.3309C16.5969 33.3309 17.0436 32.8772 17.0436 32.3171C17.0436 31.7573 16.5969 31.3036 16.0459 31.3036C15.495 31.3036 15.0483 31.7573 15.0483 32.3171C15.0483 32.8772 15.495 33.3309 16.0459 33.3309Z" fill="white"/>
<path d="M31.9946 17.1248C32.5456 17.1248 32.9922 16.6709 32.9922 16.1111C32.9922 15.5513 32.5456 15.0974 31.9946 15.0974C31.4437 15.0974 30.9971 15.5513 30.9971 16.1111C30.9971 16.6709 31.4437 17.1248 31.9946 17.1248Z" fill="white"/>
<path d="M31.9946 49.5371C32.5456 49.5371 32.9922 49.0833 32.9922 48.5232C32.9922 47.9635 32.5456 47.5095 31.9946 47.5095C31.4437 47.5095 30.9971 47.9635 30.9971 48.5232C30.9971 49.0833 31.4437 49.5371 31.9946 49.5371Z" fill="white"/>
<path d="M47.9441 33.3309C48.4951 33.3309 48.9416 32.8772 48.9416 32.3171C48.9416 31.7573 48.4951 31.3036 47.9441 31.3036C47.393 31.3036 46.9463 31.7573 46.9463 32.3171C46.9463 32.8772 47.393 33.3309 47.9441 33.3309Z" fill="white"/>
<path fill-rule="evenodd" clip-rule="evenodd" d="M31.9946 35.3176C28.9484 35.331 26.4477 32.79 26.461 29.6813C26.4743 26.5995 28.9484 24.072 32.0211 24.0855C35.0539 24.0991 37.5415 26.6266 37.5148 29.7488C37.5015 32.8306 35.0406 35.331 31.9946 35.3176Z" fill="#0090FF"/>
<path fill-rule="evenodd" clip-rule="evenodd" d="M32.687 29.2487C33.1659 29.3163 33.6445 29.3838 34.1368 29.4514C34.1768 29.3027 34.2168 29.1811 34.2566 29.0324C33.7512 28.9513 33.2722 28.8837 32.7667 28.8027C32.9396 28.1809 33.0862 27.5862 33.2722 27.005C33.3387 26.8157 33.4718 26.6265 33.618 26.4778C33.8044 26.2886 34.057 26.3291 34.2167 26.5454C34.2833 26.64 34.3495 26.7346 34.4161 26.8022C34.5226 26.8968 34.6689 26.9508 34.7619 26.8563C34.8285 26.7887 34.8285 26.64 34.8285 26.5319C34.8285 26.4914 34.7755 26.4373 34.7487 26.3967C34.5759 26.194 34.3363 26.1264 34.097 26.1128C33.5383 26.0858 33.1391 26.3832 32.8333 26.8157C32.5274 27.2482 32.3944 27.7484 32.2346 28.2484C32.1948 28.3971 32.1548 28.5458 32.1151 28.708C31.5696 28.627 31.0509 28.5458 30.5187 28.4783C30.5055 28.627 30.479 28.7621 30.4654 28.9107C30.9977 28.9918 31.5031 29.073 32.0218 29.1541C31.9553 29.4514 31.889 29.7352 31.8224 30.0191C31.3167 29.9515 30.8246 29.884 30.3324 29.8028C30.3059 29.965 30.2927 30.0866 30.2794 30.2218C30.7716 30.303 31.237 30.3704 31.7159 30.4517C31.7159 30.5057 31.7159 30.5327 31.7159 30.5734C31.5696 31.2355 31.4233 31.8979 31.2502 32.5467C31.1705 32.8575 31.0374 33.155 30.7848 33.3711C30.572 33.547 30.3459 33.5199 30.1862 33.3034C30.1197 33.2089 30.0532 33.0873 29.9601 33.0062C29.8936 32.9521 29.7339 32.9252 29.694 32.9656C29.6142 33.0333 29.561 33.1685 29.5743 33.263C29.5743 33.3576 29.6674 33.4521 29.7339 33.5199C29.9866 33.7226 30.2927 33.7496 30.6117 33.6955C31.1307 33.5873 31.4898 33.263 31.7159 32.8036C31.889 32.4384 32.0218 32.0466 32.1548 31.6546C32.2746 31.3032 32.3411 30.9383 32.4474 30.5734C32.9531 30.6544 33.4585 30.7218 33.9639 30.8031C34.0039 30.6544 34.0437 30.5192 34.0837 30.384C33.5515 30.303 33.0461 30.2218 32.5274 30.1543C32.5672 29.8163 32.6205 29.5461 32.687 29.2487Z" fill="white"/>
<path d="M26.7666 39.1967C26.7666 38.1291 27.445 37.1153 28.6022 37.1153C29.4004 37.1153 29.9325 37.6019 29.9325 38.4534C29.9325 39.5211 29.2541 40.5348 28.0968 40.5348C27.2987 40.5348 26.7666 40.0483 26.7666 39.1967ZM29.3471 38.494C29.3471 38.021 29.1211 37.5748 28.549 37.5748C27.7376 37.5748 27.3652 38.4805 27.3652 39.1429C27.3652 39.6159 27.5913 40.0618 28.1633 40.0618C28.9747 40.0618 29.3471 39.1697 29.3471 38.494Z" fill="white"/>
<path d="M31.5159 38.5481C31.1167 38.5481 30.9172 38.7372 30.7976 39.2509L30.5448 40.4808H30.0127L30.5315 38.0209H31.0635L30.9837 38.4129C31.17 38.1561 31.4226 38.0073 31.7287 38.0073C31.7684 38.0073 31.8085 38.0073 31.8485 38.0209L31.7419 38.5616C31.6489 38.5481 31.5824 38.5481 31.5159 38.5481Z" fill="white"/>
<path d="M33.378 37.9669C34.0164 37.9669 34.2823 38.4535 34.2823 39.0077C34.2823 39.7782 33.8434 40.5352 33.0718 40.5352C32.7393 40.5352 32.4867 40.3729 32.3669 40.0754L32.2871 40.4811H31.7549L32.4467 37.1696H32.9788L32.7393 38.2779C32.8858 38.075 33.1251 37.9669 33.378 37.9669ZM33.7371 39.0484C33.7371 38.6564 33.5773 38.4131 33.2314 38.4131C32.766 38.4131 32.5132 38.9536 32.5132 39.4402C32.5132 39.8322 32.6862 40.1025 33.0321 40.1025C33.5108 40.1025 33.7371 39.4808 33.7371 39.0484Z" fill="white"/>
<path d="M34.988 40.4811H34.4561L34.9747 38.0211H35.507L34.988 40.4811ZM35.5735 37.7236H35.0412L35.1479 37.1696H35.6798L35.5735 37.7236Z" fill="white"/>
<path d="M36.8761 37.3721L36.7431 38.0209H37.222L37.1422 38.413H36.6501L36.3707 39.7511C36.3574 39.8052 36.3574 39.8591 36.3574 39.8997C36.3574 40.0214 36.424 40.062 36.5968 40.062H36.7964L36.7166 40.4809H36.3307C35.9451 40.4809 35.7988 40.3999 35.7988 40.143C35.7988 40.062 35.812 39.9537 35.8385 39.832L36.1314 38.413H35.772L35.8521 38.0209H36.2111L36.3442 37.3721H36.8761Z" fill="white"/>
</svg>
