<svg width="64" height="64" viewBox="0 0 64 64" fill="none" xmlns="http://www.w3.org/2000/svg">
<circle cx="32" cy="32" r="32" fill="#0A0E00"/>
<path d="M31.9948 48.5229C40.8032 48.5229 47.9439 41.2673 47.9439 32.3169C47.9439 23.3666 40.8032 16.1108 31.9948 16.1108C23.1865 16.1108 16.0459 23.3666 16.0459 32.3169C16.0459 41.2673 23.1865 48.5229 31.9948 48.5229Z" stroke="white" stroke-width="0.586288" stroke-miterlimit="10"/>
<path d="M40.9017 41.3676C50.7613 31.3492 54.7659 19.1755 49.8464 14.1768C44.9272 9.17822 32.9464 13.2475 23.0871 23.2659C13.2276 33.2842 9.22288 45.4581 14.1422 50.4568C19.0616 55.4554 31.0422 51.3859 40.9017 41.3676Z" stroke="white" stroke-width="0.586288" stroke-miterlimit="9.9997"/>
<path d="M49.8464 50.4565C54.7659 45.4578 50.7613 33.284 40.9017 23.2656C31.0422 13.2473 19.0616 9.17794 14.1422 14.1766C9.22288 19.1752 13.2276 31.349 23.0871 41.3673C32.9464 51.3856 44.9272 55.455 49.8464 50.4565Z" stroke="white" stroke-width="0.586288" stroke-miterlimit="9.9997"/>
<path d="M16.0459 33.3308C16.5969 33.3308 17.0436 32.8771 17.0436 32.317C17.0436 31.7572 16.5969 31.3035 16.0459 31.3035C15.495 31.3035 15.0483 31.7572 15.0483 32.317C15.0483 32.8771 15.495 33.3308 16.0459 33.3308Z" fill="white"/>
<path d="M31.9946 17.1246C32.5456 17.1246 32.9922 16.6707 32.9922 16.1109C32.9922 15.5511 32.5456 15.0972 31.9946 15.0972C31.4437 15.0972 30.9971 15.5511 30.9971 16.1109C30.9971 16.6707 31.4437 17.1246 31.9946 17.1246Z" fill="white"/>
<path d="M31.9946 49.5369C32.5456 49.5369 32.9922 49.083 32.9922 48.523C32.9922 47.9633 32.5456 47.5093 31.9946 47.5093C31.4437 47.5093 30.9971 47.9633 30.9971 48.523C30.9971 49.083 31.4437 49.5369 31.9946 49.5369Z" fill="white"/>
<path d="M47.9441 33.3308C48.4951 33.3308 48.9416 32.8771 48.9416 32.317C48.9416 31.7572 48.4951 31.3035 47.9441 31.3035C47.393 31.3035 46.9463 31.7572 46.9463 32.317C46.9463 32.8771 47.393 33.3308 47.9441 33.3308Z" fill="white"/>
<path fill-rule="evenodd" clip-rule="evenodd" d="M31.9946 35.3176C28.9484 35.331 26.4477 32.79 26.461 29.6813C26.4743 26.5995 28.9484 24.072 32.0211 24.0855C35.0539 24.0991 37.5415 26.6266 37.5148 29.7488C37.5015 32.8306 35.0406 35.331 31.9946 35.3176Z" fill="#0090FF"/>
<path fill-rule="evenodd" clip-rule="evenodd" d="M32.687 29.2486C33.1659 29.3162 33.6445 29.3838 34.1368 29.4513C34.1768 29.3027 34.2168 29.181 34.2566 29.0324C33.7512 28.9513 33.2722 28.8836 32.7667 28.8026C32.9396 28.1808 33.0862 27.5861 33.2722 27.0049C33.3387 26.8157 33.4718 26.6264 33.618 26.4777C33.8044 26.2886 34.057 26.3291 34.2167 26.5454C34.2833 26.64 34.3495 26.7346 34.4161 26.8021C34.5226 26.8968 34.6689 26.9508 34.7619 26.8563C34.8285 26.7886 34.8285 26.64 34.8285 26.5318C34.8285 26.4913 34.7755 26.4372 34.7487 26.3966C34.5759 26.194 34.3363 26.1263 34.097 26.1128C33.5383 26.0858 33.1391 26.3832 32.8333 26.8157C32.5274 27.2482 32.3944 27.7483 32.2346 28.2484C32.1948 28.397 32.1548 28.5457 32.1151 28.7079C31.5696 28.6269 31.0509 28.5457 30.5187 28.4782C30.5055 28.6269 30.479 28.762 30.4654 28.9107C30.9977 28.9918 31.5031 29.0729 32.0218 29.154C31.9553 29.4513 31.889 29.7352 31.8224 30.019C31.3167 29.9514 30.8246 29.8839 30.3324 29.8027C30.3059 29.965 30.2927 30.0866 30.2794 30.2217C30.7716 30.3029 31.237 30.3704 31.7159 30.4517C31.7159 30.5056 31.7159 30.5326 31.7159 30.5733C31.5696 31.2355 31.4233 31.8978 31.2502 32.5467C31.1705 32.8574 31.0374 33.1549 30.7848 33.371C30.572 33.5469 30.3459 33.5199 30.1862 33.3034C30.1197 33.2088 30.0532 33.0872 29.9601 33.0062C29.8936 32.952 29.7339 32.9251 29.694 32.9656C29.6142 33.0333 29.561 33.1685 29.5743 33.263C29.5743 33.3576 29.6674 33.4521 29.7339 33.5199C29.9866 33.7225 30.2927 33.7496 30.6117 33.6954C31.1307 33.5873 31.4898 33.263 31.7159 32.8035C31.889 32.4383 32.0218 32.0465 32.1548 31.6546C32.2746 31.3032 32.3411 30.9383 32.4474 30.5733C32.9531 30.6543 33.4585 30.7218 33.9639 30.803C34.0039 30.6543 34.0437 30.5192 34.0837 30.384C33.5515 30.3029 33.0461 30.2217 32.5274 30.1542C32.5672 29.8163 32.6205 29.546 32.687 29.2486Z" fill="white"/>
<path d="M26.7666 39.1967C26.7666 38.129 27.445 37.1152 28.6022 37.1152C29.4004 37.1152 29.9325 37.6018 29.9325 38.4533C29.9325 39.5211 29.2541 40.5347 28.0968 40.5347C27.2987 40.5347 26.7666 40.0482 26.7666 39.1967ZM29.3471 38.494C29.3471 38.0209 29.1211 37.5747 28.549 37.5747C27.7376 37.5747 27.3652 38.4804 27.3652 39.1428C27.3652 39.6159 27.5913 40.0618 28.1633 40.0618C28.9747 40.0618 29.3471 39.1697 29.3471 38.494Z" fill="white"/>
<path d="M31.5159 38.5481C31.1167 38.5481 30.9172 38.7372 30.7976 39.2509L30.5448 40.4808H30.0127L30.5315 38.0209H31.0635L30.9837 38.4129C31.17 38.1561 31.4226 38.0073 31.7287 38.0073C31.7684 38.0073 31.8085 38.0073 31.8485 38.0209L31.7419 38.5616C31.6489 38.5481 31.5824 38.5481 31.5159 38.5481Z" fill="white"/>
<path d="M33.378 37.9667C34.0164 37.9667 34.2823 38.4533 34.2823 39.0076C34.2823 39.7781 33.8434 40.535 33.0718 40.535C32.7393 40.535 32.4867 40.3727 32.3669 40.0753L32.2871 40.4809H31.7549L32.4467 37.1694H32.9788L32.7393 38.2777C32.8858 38.0748 33.1251 37.9667 33.378 37.9667ZM33.7371 39.0482C33.7371 38.6562 33.5773 38.4129 33.2314 38.4129C32.766 38.4129 32.5132 38.9534 32.5132 39.44C32.5132 39.832 32.6862 40.1024 33.0321 40.1024C33.5108 40.1024 33.7371 39.4806 33.7371 39.0482Z" fill="white"/>
<path d="M34.988 40.4809H34.4561L34.9747 38.0209H35.507L34.988 40.4809ZM35.5735 37.7234H35.0412L35.1479 37.1694H35.6798L35.5735 37.7234Z" fill="white"/>
<path d="M36.8761 37.3721L36.7431 38.0209H37.222L37.1422 38.4129H36.6501L36.3707 39.751C36.3574 39.8051 36.3574 39.8591 36.3574 39.8997C36.3574 40.0214 36.424 40.062 36.5968 40.062H36.7964L36.7166 40.4808H36.3307C35.9451 40.4808 35.7988 40.3998 35.7988 40.143C35.7988 40.0619 35.812 39.9537 35.8385 39.832L36.1314 38.4129H35.772L35.8521 38.0209H36.2111L36.3442 37.3721H36.8761Z" fill="white"/>
</svg>
