<svg width="441" height="64" viewBox="0 0 441 64" fill="none" xmlns="http://www.w3.org/2000/svg">
<path d="M30.757 26.6621C30.757 26.6621 45.1455 34.5518 44.6831 44.6866C44.2206 54.8214 29.9063 56.2899 17.2969 51.8808C17.2969 51.8808 30.1392 53.5823 32.6138 51.3372C32.6138 51.3372 28.9002 47.7013 31.9078 45.8445C34.9154 43.9877 38.6361 45.8445 38.6361 45.8445C38.6361 45.8445 42.5262 35.1696 30.757 26.6621Z" fill="url(#paint0_linear_1_677)"/>
<path d="M33.4854 37.2102C33.4854 37.2102 19.0969 29.3205 19.5628 19.2069C20.0288 9.09328 34.3361 7.60363 46.9455 12.0127C46.9455 12.0127 34.1067 10.3112 31.6286 12.5528C31.6286 12.5528 35.3422 16.1888 32.3346 18.0456C29.327 19.9024 25.6028 18.0456 25.6028 18.0456C25.6028 18.0456 21.7303 28.7028 33.4854 37.2102Z" fill="url(#paint1_linear_1_677)"/>
<path d="M32 0C25.671 0 19.4842 1.87679 14.2218 5.393C8.95941 8.9092 4.85786 13.9069 2.43585 19.7541C0.0138497 25.6014 -0.619836 32.0355 0.614891 38.2429C1.84962 44.4503 4.89732 50.1522 9.37261 54.6274C13.8479 59.1027 19.5497 62.1504 25.7571 63.3851C31.9645 64.6198 38.3986 63.9862 44.2459 61.5641C50.0931 59.1421 55.0908 55.0406 58.607 49.7783C62.1233 44.5159 64 38.329 64 32C64 23.513 60.6286 15.3738 54.6275 9.37259C48.6263 3.37142 40.487 0 32 0ZM32.0671 62.1291C26.1184 62.1291 20.3034 60.3651 15.3573 57.0601C10.4113 53.7552 6.55633 49.0577 4.28004 43.5618C2.00376 38.0659 1.40836 32.0184 2.56914 26.1841C3.72992 20.3498 6.59473 14.9908 10.8013 10.7847C15.0079 6.57862 20.3673 3.71439 26.2017 2.5543C32.0361 1.3942 38.0835 1.99034 43.5792 4.26727C49.0748 6.5442 53.7718 10.3997 57.0762 15.3461C60.3806 20.2926 62.1439 26.1079 62.1432 32.0565C62.1465 36.0081 61.3709 39.9215 59.8608 43.5732C58.3508 47.2248 56.1358 50.5431 53.3426 53.3382C50.5494 56.1334 47.2328 58.3507 43.5822 59.8633C39.9316 61.3759 36.0186 62.1543 32.0671 62.1538V62.1291Z" fill="url(#paint2_linear_1_677)"/>
<path d="M89.3163 33.4078C89.9446 35.2999 91.4555 36.5425 95.0914 36.5425C98.4979 36.5425 99.4828 35.5012 99.4828 34.0891C99.4828 32.5783 98.4732 31.7275 93.8559 30.9438C86.2557 29.6447 84.8719 27.1772 84.8719 24.2367C84.8719 19.8629 89.0833 17.6284 94.2619 17.6284C101.781 17.6284 103.821 21.4938 104.068 24.039H98.7451C98.438 22.9552 97.7072 21.5009 94.0924 21.5009C91.5614 21.5009 90.2764 22.3058 90.2764 23.7213C90.2764 24.9886 91.1801 25.624 95.2927 26.3618C103.617 27.8585 104.919 30.3684 104.919 33.5455C104.919 37.3438 101.94 40.4114 94.5902 40.4114C87.7383 40.4114 84.6531 37.3544 84 33.4078H89.3163Z" fill="url(#paint3_linear_1_677)"/>
<path d="M126.303 31.9223C126.303 36.8644 122.885 40.3945 116.92 40.3945C110.954 40.3945 107.872 36.3702 107.872 31.9223C107.872 27.4745 111.049 23.4502 117.124 23.4502C123.376 23.4643 126.303 27.9369 126.303 31.9223ZM113.044 31.9223C113.044 34.4216 114.431 36.5679 117.089 36.5679C119.825 36.5679 121.078 34.4499 121.078 32.0035C121.078 29.5572 119.871 27.2945 117.05 27.2945C114.3 27.3015 113.033 29.4513 113.033 31.9294L113.044 31.9223Z" fill="url(#paint4_linear_1_677)"/>
<path d="M145.436 35.4701C145.436 37.5599 145.528 39.6285 145.563 39.9745H140.777C140.664 39.3759 140.601 38.7689 140.59 38.16C139.725 39.5473 137.875 40.4086 134.853 40.4086C130.455 40.4086 128.683 37.7293 128.683 35.1629C128.683 30.9269 132.375 29.7725 137.112 29.7725H140.48V29.2642C140.48 27.9616 139.915 26.9097 137.557 26.9097C135.358 26.9097 134.874 27.7322 134.666 28.6535H129.583C129.72 26.6732 131.118 23.4644 137.476 23.4644C144.455 23.4644 145.45 26.7508 145.45 29.4407L145.436 35.4701ZM140.466 32.9991C140.113 32.9743 138.99 32.9743 137.19 32.9743C134.606 32.9743 133.589 33.6521 133.589 34.9194C133.589 35.9784 134.433 36.8115 136.276 36.8115C139.065 36.8115 140.466 35.5336 140.466 33.2497V32.9991Z" fill="url(#paint5_linear_1_677)"/>
<path d="M149.803 28.2689C149.803 26.8145 149.803 25.3566 149.771 23.9022H154.735C154.823 24.4705 154.883 26.2497 154.883 27.1146C155.783 24.9965 157.746 23.4115 161.082 23.4927V28.1171C157.446 28.0606 154.883 29.5291 154.883 34.1005V39.9746H149.803V28.2689Z" fill="url(#paint6_linear_1_677)"/>
<path d="M190.051 31.9223C190.051 36.8644 186.633 40.3945 180.664 40.3945C174.695 40.3945 171.62 36.3702 171.62 31.9223C171.62 27.4745 174.797 23.4502 180.872 23.4502C187.135 23.4643 190.051 27.9369 190.051 31.9223ZM176.792 31.9223C176.792 34.4216 178.179 36.5679 180.837 36.5679C183.573 36.5679 184.826 34.4499 184.826 32.0035C184.826 29.5572 183.619 27.2945 180.798 27.2945C178.041 27.3015 176.785 29.4513 176.785 31.9294L176.792 31.9223Z" fill="url(#paint7_linear_1_677)"/>
<path d="M193.409 27.9581C193.409 26.5955 193.409 25.0564 193.377 23.9021H198.34C198.404 24.3539 198.464 25.3141 198.488 25.9777C199.226 24.8657 200.691 23.4644 203.826 23.4644C207.78 23.4644 210.127 25.9177 210.127 30.062V39.9745H204.987V30.8704C204.987 29.0313 204.281 27.4145 201.99 27.4145C199.622 27.4145 198.517 29.0595 198.517 31.9577V39.9745H193.409V27.9581Z" fill="url(#paint8_linear_1_677)"/>
<path d="M228.609 22.2996H220.91V18.0635H241.621V22.2996H233.94V39.9746H228.62L228.609 22.2996Z" fill="url(#paint9_linear_1_677)"/>
<path d="M245.07 33.1681C245.201 35.1097 246.609 36.6276 249.017 36.6276C250.937 36.6276 251.841 36.0416 252.427 35.0567H257.51C256.539 37.902 254.121 40.4047 248.964 40.4047C242.384 40.4047 240.008 36.0416 240.008 31.9538C240.008 27.4283 243.051 23.4604 248.925 23.4604C255.18 23.4604 257.7 27.7707 257.7 31.9573C257.7 32.3633 257.7 32.6633 257.676 33.1681H245.07ZM252.547 30.0581C252.444 28.8297 251.784 27.0188 248.921 27.0188C246.253 27.0188 245.282 28.4766 245.13 30.0581H252.547Z" fill="url(#paint10_linear_1_677)"/>
<path d="M277.675 34.5452C277.026 37.5846 274.41 40.4086 269.14 40.4086C262.951 40.4086 260.223 36.5256 260.223 31.9082C260.223 27.5592 263.322 23.4644 269.147 23.4644C275.501 23.4644 277.375 27.6228 277.566 29.3984H272.483C272.182 28.5265 271.399 27.2804 269.189 27.2804C266.556 27.2804 265.394 29.229 265.394 31.8695C265.394 34.4711 266.492 36.575 269.168 36.575C271 36.575 271.939 35.9078 272.592 34.5416L277.675 34.5452Z" fill="url(#paint11_linear_1_677)"/>
<path d="M285.885 16.8135V25.9105C286.496 25.0173 287.88 23.4641 291.215 23.4641C295.18 23.4641 297.52 25.7269 297.52 30.3301V39.9742H292.384V30.8949C292.384 28.8404 291.83 27.4143 289.521 27.4143C287.114 27.4143 285.913 29.1793 285.913 32.2575V39.9742H280.83V16.8135H285.885Z" fill="url(#paint12_linear_1_677)"/>
<path d="M301.89 27.9581C301.89 26.5955 301.89 25.0564 301.858 23.9021H306.822C306.885 24.3539 306.945 25.3141 306.97 25.9777C307.708 24.8657 309.176 23.4644 312.307 23.4644C316.261 23.4644 318.605 25.9177 318.605 30.062V39.9745H313.469V30.8704C313.469 29.0313 312.763 27.4145 310.472 27.4145C308.103 27.4145 306.998 29.0595 306.998 31.9577V39.9745H301.89V27.9581Z" fill="url(#paint13_linear_1_677)"/>
<path d="M340.391 31.9223C340.391 36.8644 336.97 40.3945 331.005 40.3945C325.039 40.3945 321.957 36.3702 321.957 31.9223C321.957 27.4745 325.134 23.4502 331.209 23.4502C337.475 23.4643 340.391 27.9369 340.391 31.9223ZM327.129 31.9223C327.129 34.4216 328.516 36.5679 331.174 36.5679C333.913 36.5679 335.163 34.4499 335.163 32.0035C335.163 29.5572 333.956 27.2945 331.139 27.2945C328.382 27.3015 327.129 29.4513 327.129 31.9294V31.9223Z" fill="url(#paint14_linear_1_677)"/>
<path d="M343.756 39.9742V16.8135H348.839V39.9742H343.756Z" fill="url(#paint15_linear_1_677)"/>
<path d="M370.619 31.9223C370.619 36.8644 367.202 40.3945 361.233 40.3945C355.263 40.3945 352.188 36.3702 352.188 31.9223C352.188 27.4745 355.366 23.4502 361.441 23.4502C367.703 23.4643 370.619 27.9369 370.619 31.9223ZM357.36 31.9223C357.36 34.4216 358.747 36.5679 361.406 36.5679C364.141 36.5679 365.394 34.4499 365.394 32.0035C365.394 29.5572 364.187 27.2945 361.367 27.2945C358.61 27.3015 357.36 29.4513 357.36 31.9294V31.9223Z" fill="url(#paint16_linear_1_677)"/>
<path d="M391.331 38.1776C391.331 43.9599 388.782 47.1863 381.976 47.1863C374.842 47.1863 373.592 43.2256 373.31 41.4677H378.453C378.806 42.4914 379.685 43.4339 382.262 43.4339C385.559 43.4339 386.308 41.3159 386.308 38.5624V37.8987C385.372 39.1978 384.073 40.1757 380.959 40.1757C376.307 40.1757 373.193 36.5115 373.193 32.1377C373.193 27.1498 376.787 23.4644 381.376 23.4644C384.754 23.4644 385.933 24.8057 386.318 25.713C386.346 25.1411 386.378 24.301 386.41 23.9021H391.373C391.341 25.4765 391.341 27.0509 391.341 28.6288L391.331 38.1776ZM378.376 31.9612C378.376 34.277 379.749 36.2785 382.368 36.2785C384.987 36.2785 386.396 34.7393 386.396 31.8023C386.396 29.183 385.069 27.4145 382.513 27.4145C379.833 27.4145 378.376 29.3914 378.376 31.9612Z" fill="url(#paint17_linear_1_677)"/>
<path d="M395.714 16.8135H400.797V20.8766H395.714V16.8135ZM395.714 23.9019H400.797V39.9742H395.714V23.9019Z" fill="url(#paint18_linear_1_677)"/>
<path d="M409.214 33.1681C409.348 35.1097 410.756 36.6276 413.164 36.6276C415.084 36.6276 415.988 36.0416 416.574 35.0567H421.654C420.686 37.902 418.268 40.4047 413.111 40.4047C406.531 40.4047 404.155 36.0416 404.155 31.9538C404.155 27.4283 407.198 23.4604 413.072 23.4604C419.324 23.4604 421.848 27.7707 421.848 31.9573C421.848 32.3633 421.848 32.6633 421.82 33.1681H409.214ZM416.694 30.0581C416.592 28.8297 415.932 27.0188 413.069 27.0188C410.396 27.0188 409.429 28.4766 409.277 30.0581H416.694Z" fill="url(#paint19_linear_1_677)"/>
<path d="M429.123 35.0359C429.529 36.1832 430.605 36.9386 432.773 36.9386C434.94 36.9386 435.544 36.2644 435.544 35.5055C435.544 34.6053 434.838 34.1676 431.625 33.7404C425.497 32.8756 424.65 30.6127 424.65 28.6536C424.65 26.2178 426.496 23.4785 432.063 23.4785C437.739 23.4785 439.727 26.1543 439.96 28.4594H434.951C434.732 27.704 434.156 26.8427 431.883 26.8427C429.959 26.8427 429.62 27.5769 429.62 28.1452C429.62 28.8124 430.132 29.2043 433.126 29.6597C439.653 30.6481 440.511 32.8367 440.511 35.0712C440.511 38.0011 438.287 40.4228 432.42 40.4228C428.025 40.4228 424.583 38.5695 424.078 35.0501L429.123 35.0359Z" fill="url(#paint20_linear_1_677)"/>
<defs>
<linearGradient id="paint0_linear_1_677" x1="17.311" y1="40.447" x2="44.7043" y2="40.447" gradientUnits="userSpaceOnUse">
<stop stop-color="#80BD26"/>
<stop offset="0.74" stop-color="#026431"/>
</linearGradient>
<linearGradient id="paint1_linear_1_677" x1="19.5522" y1="23.4289" x2="46.9455" y2="23.4289" gradientUnits="userSpaceOnUse">
<stop stop-color="#80BD26"/>
<stop offset="0.74" stop-color="#026431"/>
</linearGradient>
<linearGradient id="paint2_linear_1_677" x1="0.684846" y1="32.0141" x2="64.6813" y2="32.0141" gradientUnits="userSpaceOnUse">
<stop offset="0.08" stop-color="#80BD26"/>
<stop offset="0.99" stop-color="#026431"/>
</linearGradient>
<linearGradient id="paint3_linear_1_677" x1="87.1912" y1="28.7022" x2="543.293" y2="48.6965" gradientUnits="userSpaceOnUse">
<stop stop-color="#80BD26"/>
<stop offset="0.74" stop-color="#026431"/>
</linearGradient>
<linearGradient id="paint4_linear_1_677" x1="87.1047" y1="30.6268" x2="543.206" y2="50.621" gradientUnits="userSpaceOnUse">
<stop stop-color="#80BD26"/>
<stop offset="0.74" stop-color="#026431"/>
</linearGradient>
<linearGradient id="paint5_linear_1_677" x1="87.1443" y1="29.7832" x2="543.247" y2="49.7775" gradientUnits="userSpaceOnUse">
<stop stop-color="#80BD26"/>
<stop offset="0.74" stop-color="#026431"/>
</linearGradient>
<linearGradient id="paint6_linear_1_677" x1="87.187" y1="28.7419" x2="543.293" y2="48.7363" gradientUnits="userSpaceOnUse">
<stop stop-color="#80BD26"/>
<stop offset="0.74" stop-color="#026431"/>
</linearGradient>
<linearGradient id="paint7_linear_1_677" x1="87.2305" y1="27.8381" x2="543.332" y2="47.8323" gradientUnits="userSpaceOnUse">
<stop stop-color="#80BD26"/>
<stop offset="0.74" stop-color="#026431"/>
</linearGradient>
<linearGradient id="paint8_linear_1_677" x1="87.2705" y1="26.8356" x2="543.372" y2="46.8263" gradientUnits="userSpaceOnUse">
<stop stop-color="#80BD26"/>
<stop offset="0.74" stop-color="#026431"/>
</linearGradient>
<linearGradient id="paint9_linear_1_677" x1="87.4599" y1="22.5467" x2="543.564" y2="42.5409" gradientUnits="userSpaceOnUse">
<stop stop-color="#80BD26"/>
<stop offset="0.74" stop-color="#026431"/>
</linearGradient>
<linearGradient id="paint10_linear_1_677" x1="87.3609" y1="24.8548" x2="543.462" y2="44.8491" gradientUnits="userSpaceOnUse">
<stop stop-color="#80BD26"/>
<stop offset="0.74" stop-color="#026431"/>
</linearGradient>
<linearGradient id="paint11_linear_1_677" x1="87.3981" y1="23.9691" x2="543.489" y2="43.9634" gradientUnits="userSpaceOnUse">
<stop stop-color="#80BD26"/>
<stop offset="0.74" stop-color="#026431"/>
</linearGradient>
<linearGradient id="paint12_linear_1_677" x1="87.5767" y1="19.8105" x2="543.682" y2="39.8048" gradientUnits="userSpaceOnUse">
<stop stop-color="#80BD26"/>
<stop offset="0.74" stop-color="#026431"/>
</linearGradient>
<linearGradient id="paint13_linear_1_677" x1="87.4816" y1="22.0876" x2="543.583" y2="42.0818" gradientUnits="userSpaceOnUse">
<stop stop-color="#80BD26"/>
<stop offset="0.74" stop-color="#026431"/>
</linearGradient>
<linearGradient id="paint14_linear_1_677" x1="87.5152" y1="21.258" x2="543.62" y2="41.2523" gradientUnits="userSpaceOnUse">
<stop stop-color="#80BD26"/>
<stop offset="0.74" stop-color="#026431"/>
</linearGradient>
<linearGradient id="paint15_linear_1_677" x1="87.7046" y1="17.0571" x2="543.803" y2="37.051" gradientUnits="userSpaceOnUse">
<stop stop-color="#80BD26"/>
<stop offset="0.74" stop-color="#026431"/>
</linearGradient>
<linearGradient id="paint16_linear_1_677" x1="87.574" y1="19.9378" x2="543.677" y2="39.9322" gradientUnits="userSpaceOnUse">
<stop stop-color="#80BD26"/>
<stop offset="0.74" stop-color="#026431"/>
</linearGradient>
<linearGradient id="paint17_linear_1_677" x1="87.4667" y1="22.4336" x2="543.568" y2="42.4243" gradientUnits="userSpaceOnUse">
<stop stop-color="#80BD26"/>
<stop offset="0.74" stop-color="#026431"/>
</linearGradient>
<linearGradient id="paint18_linear_1_677" x1="87.7976" y1="14.7837" x2="543.904" y2="34.7783" gradientUnits="userSpaceOnUse">
<stop stop-color="#80BD26"/>
<stop offset="0.74" stop-color="#026431"/>
</linearGradient>
<linearGradient id="paint19_linear_1_677" x1="87.6755" y1="17.6747" x2="543.776" y2="37.6653" gradientUnits="userSpaceOnUse">
<stop stop-color="#80BD26"/>
<stop offset="0.74" stop-color="#026431"/>
</linearGradient>
<linearGradient id="paint20_linear_1_677" x1="87.7088" y1="16.8349" x2="543.814" y2="36.8257" gradientUnits="userSpaceOnUse">
<stop stop-color="#80BD26"/>
<stop offset="0.74" stop-color="#026431"/>
</linearGradient>
</defs>
</svg>
