<svg width="32" height="32" viewBox="0 0 32 32" fill="none" xmlns="http://www.w3.org/2000/svg">
<path d="M7.99998 3.99996L7.99998 7.99996H7.33331C6.22874 7.99996 5.33331 8.89539 5.33331 9.99996V14C5.33331 15.1045 6.22874 16 7.33331 16H7.99998L7.99998 28C7.99998 28.7363 8.59693 29.3333 9.33331 29.3333C10.0697 29.3333 10.6666 28.7363 10.6666 28L10.6666 16H11.3333C12.4379 16 13.3333 15.1045 13.3333 14V9.99996C13.3333 8.89539 12.4379 7.99996 11.3333 7.99996H10.6666L10.6666 3.99996C10.6666 3.26358 10.0697 2.66663 9.33331 2.66663C8.59693 2.66663 7.99998 3.26358 7.99998 3.99996Z" fill="#FFFCE1"/>
<path d="M24 12H24.6666C25.7712 12 26.6666 12.8954 26.6666 14V22C26.6666 23.1045 25.7712 24 24.6666 24H24V28C24 28.7363 23.403 29.3333 22.6666 29.3333C21.9303 29.3333 21.3333 28.7363 21.3333 28V24H20.6666C19.5621 24 18.6666 23.1045 18.6666 22V14C18.6666 12.8954 19.5621 12 20.6666 12H21.3333V3.99996C21.3333 3.26358 21.9303 2.66663 22.6666 2.66663C23.403 2.66663 24 3.26358 24 3.99996V12Z" fill="#FFFCE1"/>
</svg>
